<?xml version="1.0" standalone="no"?>
<!DOCTYPE svg PUBLIC "-//W3C//DTD SVG 20010904//EN"
 "http://www.w3.org/TR/2001/REC-SVG-20010904/DTD/svg10.dtd">
<svg version="1.0" xmlns="http://www.w3.org/2000/svg"
 width="860.000000pt" height="1482.000000pt" viewBox="0 0 860.000000 1482.000000"
 preserveAspectRatio="xMidYMid meet">

<g transform="translate(0.000000,1482.000000) scale(0.100000,-0.100000)"
fill="#fed67e" stroke="none">
<path d="M4110 14399 c-289 -24 -565 -101 -835 -234 -493 -242 -877 -640
-1104 -1144 -196 -436 -250 -947 -150 -1433 31 -155 112 -386 189 -543 339
-691 986 -1162 1760 -1282 161 -25 510 -25 670 0 543 85 1004 330 1382 735
584 624 772 1568 472 2379 -362 982 -1343 1609 -2384 1522z"/>
<path d="M4130 7694 c-115 -11 -276 -38 -390 -65 -697 -170 -1295 -678 -1579
-1340 -378 -883 -183 -1896 494 -2574 410 -409 939 -645 1532 -681 l113 -7 -6
-26 c-4 -14 -41 -132 -84 -261 -200 -605 -477 -1205 -792 -1712 -103 -167
-112 -187 -112 -278 -1 -66 4 -85 32 -142 61 -125 175 -198 307 -198 113 0
165 29 470 259 1255 948 2104 2226 2394 3606 37 177 76 434 90 595 6 69 17
177 24 240 6 63 11 192 11 285 -7 771 -398 1486 -1049 1920 -267 177 -608 306
-952 360 -96 15 -414 27 -503 19z"/>
</g>
</svg>
