<?xml version="1.0" standalone="no"?>
<!DOCTYPE svg PUBLIC "-//W3C//DTD SVG 20010904//EN"
 "http://www.w3.org/TR/2001/REC-SVG-20010904/DTD/svg10.dtd">
<svg version="1.0" xmlns="http://www.w3.org/2000/svg"
 width="200.000000pt" height="200.000000pt" viewBox="0 0 200.000000 200.000000"
 preserveAspectRatio="xMidYMid meet">

<g transform="translate(0.000000,200.000000) scale(0.100000,-0.100000)"
fill="#5d473e" stroke="none">
<path d="M794 1823 c-11 -2 -68 -52 -127 -111 l-107 -108 2 -469 c3 -410 5
-470 18 -470 13 0 15 58 18 453 l2 452 98 0 c63 0 102 4 110 12 8 8 12 46 12
105 l0 93 433 -2 432 -3 3 -687 2 -688 -367 -2 c-360 -3 -368 -3 -368 -23 0
-20 8 -20 368 -23 l368 -2 24 24 25 25 0 680 c0 494 -3 687 -12 705 -7 17 -24
30 -47 36 -34 9 -840 12 -887 3z m-15 -175 l1 -28 -72 0 -72 0 64 65 65 66 7
-38 c4 -21 7 -50 7 -65z"/>
<path d="M783 1393 c-7 -2 -13 -13 -13 -24 0 -18 12 -19 389 -19 397 0 431 3
386 37 -15 10 -93 13 -384 12 -201 0 -372 -3 -378 -6z"/>
<path d="M770 1210 c0 -20 4 -20 393 -18 341 3 392 5 392 18 0 13 -51 15 -392
18 -389 2 -393 2 -393 -18z"/>
<path d="M770 1050 c0 -20 4 -20 393 -18 341 3 392 5 392 18 0 13 -51 15 -392
18 -389 2 -393 2 -393 -18z"/>
<path d="M772 888 l3 -23 381 -3 c325 -2 383 0 394 12 6 9 9 20 5 26 -4 7
-136 10 -396 10 l-390 0 3 -22z"/>
<path d="M154 585 c-11 -27 7 -35 84 -35 l78 0 54 -167 55 -168 179 -3 c113
-1 183 1 190 8 13 13 97 301 90 312 -3 4 -99 8 -214 8 -169 0 -209 -3 -213
-14 -3 -8 -3 -17 0 -20 4 -3 89 -6 191 -6 l184 0 -5 -22 c-4 -13 -19 -67 -34
-120 l-28 -98 -155 0 -155 0 -49 158 c-26 86 -53 163 -58 170 -16 19 -187 17
-194 -3z"/>
<path d="M472 134 c-31 -21 -31 -87 0 -108 49 -35 111 -4 111 54 0 58 -62 89
-111 54z m66 -51 c5 -17 -26 -29 -40 -15 -6 6 -7 15 -3 22 9 14 37 9 43 -7z"/>
<path d="M671 124 c-12 -15 -21 -37 -21 -49 0 -29 40 -65 73 -65 61 0 89 76
44 118 -32 30 -71 28 -96 -4z m69 -44 c0 -13 -7 -20 -20 -20 -13 0 -20 7 -20
20 0 13 7 20 20 20 13 0 20 -7 20 -20z"/>
</g>
</svg>
